<svg width="1920" height="948" viewBox="0 0 1920 948" fill="none" xmlns="http://www.w3.org/2000/svg">
<path d="M1953.71 58.5893C1429.73 -25.4499 797.907 637.215 -55.2547 564.454" stroke="black" stroke-opacity="0.2"/>
<path d="M2001.22 370.594C1491.46 221.183 784.509 799.293 -53.2345 619.612" stroke="black" stroke-opacity="0.2"/>
<path d="M1969.85 105.362C1447.76 9.88284 802.204 658.596 -49.2162 567.195" stroke="black" stroke-opacity="0.2"/>
<path d="M2012.18 422.088C1505.54 261.994 787.11 825.14 -46.8172 627.891" stroke="black" stroke-opacity="0.2"/>
<path d="M1976.91 148.173C1456.35 44.4056 800.995 682.79 -48.9146 577.865" stroke="black" stroke-opacity="0.2"/>
<path d="M1989.69 202.185C1471.52 86.6612 802.493 710.076 -44.9111 585.943" stroke="black" stroke-opacity="0.2"/>
<path d="M1995.64 253.151C1479.52 128.424 799.978 739.853 -45.1636 600.66" stroke="black" stroke-opacity="0.2"/>
<path d="M2001.42 313.5C1488.61 175.312 793.976 768.787 -47.3746 607.533" stroke="black" stroke-opacity="0.2"/>
</svg>
