<svg width="66" height="68" viewBox="0 0 66 68" fill="none" xmlns="http://www.w3.org/2000/svg">
<path d="M14.026 14.492V19.2H19.746V21.136H14.026V25.954H20.406V28H11.518V12.468H20.406V14.492H14.026Z" fill="#333333"/>
<path d="M47.85 46.212C47.85 47.7813 47.5273 49.1527 46.882 50.326C46.2513 51.4847 45.32 52.3867 44.088 53.032C42.8707 53.6773 41.4113 54 39.71 54H34.518L34.518 38.468H39.71C41.4113 38.468 42.8707 38.7907 44.088 39.436C45.32 40.0667 46.2513 40.9613 46.882 42.12C47.5273 43.2787 47.85 44.6427 47.85 46.212ZM39.512 51.734C41.3747 51.734 42.8047 51.25 43.802 50.282C44.7993 49.314 45.298 47.9573 45.298 46.212C45.298 44.4667 44.7993 43.11 43.802 42.142C42.8047 41.174 41.3747 40.69 39.512 40.69H37.026V51.734H39.512Z" fill="#333333"/>
<path d="M18.624 38.336C20.472 38.336 22.012 38.7907 23.244 39.7C24.476 40.6093 25.29 41.8487 25.686 43.418H23.046C22.7087 42.582 22.1513 41.9147 21.374 41.416C20.6113 40.9173 19.702 40.668 18.646 40.668C17.678 40.668 16.8053 40.8953 16.028 41.35C15.2653 41.8047 14.664 42.45 14.224 43.286C13.7987 44.122 13.586 45.1047 13.586 46.234C13.586 47.422 13.806 48.4413 14.246 49.292C14.686 50.1427 15.302 50.7953 16.094 51.25C16.9007 51.69 17.832 51.91 18.888 51.91C20.1787 51.91 21.286 51.514 22.21 50.722C23.134 49.9153 23.6913 48.8153 23.882 47.422H18.184L18.184 45.574H25.994L25.994 47.972C25.818 49.116 25.4073 50.1573 24.762 51.096C24.1313 52.02 23.288 52.7607 22.232 53.318C21.1907 53.8753 19.9953 54.154 18.646 54.154C17.1353 54.154 15.8007 53.8167 14.642 53.142C13.4833 52.4673 12.5887 51.536 11.958 50.348C11.3273 49.1453 11.012 47.774 11.012 46.234C11.012 44.694 11.3273 43.33 11.958 42.142C12.5887 40.9393 13.476 40.008 14.62 39.348C15.7787 38.6733 17.1133 38.336 18.624 38.336Z" fill="#333333"/>
<path d="M43.7656 12.4977L43.76 14.5217L37.094 14.5031L37.0806 19.3211L42.5806 19.3364L42.5752 21.2724L37.0752 21.2571L37.0565 28.0111L34.5485 28.0041L34.5916 12.4722L43.7656 12.4977Z" fill="#333333"/>
<rect x="1" y="1" width="64" height="64" stroke="black" stroke-width="2"/>
</svg>
